<?xml version="1.0" encoding="utf-8"?>
<!-- Generator: Adobe Illustrator 15.1.1, SVG Export Plug-In . SVG Version: 6.00 Build 0)  -->
<!DOCTYPE svg PUBLIC "-//W3C//DTD SVG 1.1//EN" "http://www.w3.org/Graphics/SVG/1.1/DTD/svg11.dtd">
<svg version="1.1" id="Layer_1" xmlns="http://www.w3.org/2000/svg" xmlns:xlink="http://www.w3.org/1999/xlink" x="0px" y="0px"
	 width="720px" height="720px" viewBox="0 0 720 720" enable-background="new 0 0 720 720" xml:space="preserve">
<g>
	<defs>
		<rect id="SVGID_1_" x="-225.166" y="-79.449" width="1208.166" height="906.126"/>
	</defs>
	<clipPath id="SVGID_2_">
		<use xlink:href="#SVGID_1_"  overflow="visible"/>
	</clipPath>
	<g clip-path="url(#SVGID_2_)">
		<path fill="#010101" fill-opacity="0" d="M-225.166-79.449H983v906.126H-225.166V-79.449z"/>
		<path fill="#010101" fill-opacity="0" d="M96.002,387.591l43.36-78.942l0,0C60.382,239.818,74.25,142.992,171.402,84.958
			c97.154-58.031,245.796-58.281,343.402-0.573c97.604,57.707,112.229,154.485,33.789,223.58
			c-78.444,69.096-224.283,87.896-336.926,43.434L96.002,387.591z"/>
		<path fill="none" stroke="#ffffff" stroke-width="12" stroke-linejoin="round" stroke-miterlimit="10" d="M96.002,387.591
			l43.36-78.942l0,0C60.382,239.818,74.25,142.992,171.402,84.958c97.154-58.031,245.796-58.281,343.402-0.573
			c97.604,57.707,112.229,154.485,33.789,223.58c-78.444,69.096-224.283,87.896-336.926,43.434L96.002,387.591z"/>
		<path fill="none" stroke="#ffffff" stroke-width="12" stroke-linejoin="round" stroke-miterlimit="10" d="M639.64,342.289
			l-55.435,77.544c64.37,76.182,34.85,173.854-68.204,225.644c-103.05,51.79-245.908,40.75-330.035-25.505
			c-84.125-66.26-81.99-166.046,4.936-230.537c86.926-64.49,230.194-72.578,330.982-18.685L639.64,342.289z"/>
		<g>
			<path fill="#ffffff" d="M421.826,491.545c1.938-2.191,2.909-5.934,2.909-11.229c0-3.868-0.59-6.713-1.77-8.536
				c-1.18-1.821-2.949-2.982-5.31-3.48c-2.359-0.511-5.865-0.767-10.52-0.767h-2.911v27.275h7.197
				C416.43,494.809,419.897,493.718,421.826,491.545z"/>
			<path fill="#ffffff" d="M411.423,504.051h-7.197v32.758h8.161c3.577,0,6.352-0.554,8.319-1.668
				c1.978-1.117,3.362-2.813,4.148-5.096c0.787-2.293,1.179-5.407,1.179-9.339c0-5.587-1.146-9.752-3.439-12.508
				C420.299,505.434,416.575,504.051,411.423,504.051z"/>
			<path fill="#ffffff" d="M355.151,504.051h-7.196v32.758h8.161c3.578,0,6.351-0.554,8.317-1.668
				c1.98-1.117,3.363-2.813,4.15-5.096c0.786-2.293,1.18-5.407,1.18-9.339c0-5.587-1.147-9.752-3.441-12.508
				C364.028,505.434,360.304,504.051,355.151,504.051z"/>
			<path fill="#ffffff" d="M240.572,504.051h-7.197v32.758h8.16c3.579,0,6.352-0.554,8.319-1.668
				c1.979-1.117,3.361-2.813,4.147-5.096c0.788-2.293,1.18-5.407,1.18-9.339c0-5.587-1.147-9.752-3.441-12.508
				C249.447,505.434,245.724,504.051,240.572,504.051z"/>
			<path fill="#ffffff" d="M365.555,491.545c1.941-2.191,2.91-5.934,2.91-11.229c0-3.868-0.59-6.713-1.77-8.536
				c-1.181-1.821-2.949-2.982-5.311-3.48c-2.359-0.511-5.865-0.767-10.519-0.767h-2.91v27.275h7.196
				C360.161,494.809,363.628,493.718,365.555,491.545z"/>
			<path fill="#ffffff" d="M250.975,491.545c1.939-2.191,2.91-5.934,2.91-11.229c0-3.868-0.59-6.713-1.77-8.536
				c-1.18-1.821-2.95-2.982-5.309-3.48c-2.359-0.511-5.866-0.767-10.521-0.767h-2.91v27.275h7.197
				C245.58,494.809,249.047,493.718,250.975,491.545z"/>
			<path fill="#ffffff" d="M639.64,342.29l-117.76,28.46c-100.78-53.89-244.05-45.81-330.98,18.68
				c-86.92,64.5-89.06,164.28-4.93,230.54c84.12,66.261,226.98,77.3,330.03,25.511c103.05-51.79,132.58-149.471,68.21-225.65
				L639.64,342.29z M261.238,538.953c-3.684,4.367-9.28,6.548-16.792,6.548h-23.205v-86.976h19.978
				c7.866,0,13.692,1.771,17.483,5.312c3.8,3.539,5.701,9.032,5.701,16.479c0,11.103-4.15,17.227-12.446,18.364
				c5.15,1.22,8.908,3.64,11.267,7.259c2.372,3.604,3.559,8.524,3.559,14.767C266.784,528.505,264.937,534.588,261.238,538.953z
				 M323.055,516.184c0,6.594-0.65,12.072-1.947,16.438c-1.285,4.368-3.611,7.768-6.981,10.207
				c-3.356,2.425-8.082,3.639-14.179,3.639c-6.082,0-10.828-1.214-14.235-3.639c-3.396-2.439-5.737-5.839-7.021-10.207
				c-1.285-4.365-1.927-9.844-1.927-16.438v-57.658h11.603v58.188c0,6.593,0.766,11.608,2.3,15.043
				c1.534,3.434,4.627,5.153,9.281,5.153c4.654,0,7.749-1.72,9.282-5.153c1.548-3.435,2.32-8.45,2.32-15.043v-58.188h11.504V516.184
				z M375.818,538.953c-3.683,4.367-9.279,6.548-16.792,6.548h-23.204v-86.976h19.98c7.865,0,13.692,1.771,17.48,5.312
				c3.803,3.539,5.704,9.032,5.704,16.479c0,11.103-4.149,17.227-12.447,18.364c5.151,1.22,8.906,3.64,11.268,7.259
				c2.371,3.604,3.559,8.524,3.559,14.767C381.365,528.505,379.517,534.588,375.818,538.953z M432.089,538.953
				c-3.682,4.367-9.28,6.548-16.792,6.548h-23.203v-86.976h19.979c7.865,0,13.69,1.771,17.482,5.312
				c3.801,3.539,5.702,9.032,5.702,16.479c0,11.103-4.151,17.227-12.448,18.364c5.151,1.22,8.907,3.64,11.269,7.259
				c2.371,3.604,3.56,8.524,3.56,14.767C437.637,528.505,435.787,534.588,432.089,538.953z M482.734,545.501h-34.372v-86.976h12.133
				v78.283h22.239V545.501z M524.938,545.501h-33.943v-86.976h33.725v9.008h-21.591v28.789h17.502v8.595h-17.502v31.892h21.81
				V545.501z"/>
		</g>
		<path fill="#010101" fill-opacity="0" d="M150.59,142.104h419.33V253.09H150.59V142.104z"/>
		<path fill="#ffffff" d="M178.236,178.559h-14.708v-9.006h41.119v9.006h-14.277v77.969h-12.133V178.559z M213.031,169.553h12.133
			v37.578h22.338v-37.578h12.132v86.975h-12.132v-40.706h-22.338v40.706h-12.133V169.553z M295.494,257.492
			c-8.509,0-14.611-2.413-18.308-7.237c-3.683-4.837-5.524-11.837-5.524-21.001v-32.977c0-9.02,1.86-15.856,5.585-20.51
			c3.723-4.654,9.806-6.981,18.247-6.981c8.456,0,14.526,2.347,18.209,7.04c3.684,4.693,5.527,11.51,5.527,20.451v33.075
			c0,9.019-1.863,15.967-5.585,20.844C309.921,255.06,303.871,257.492,295.494,257.492z M295.494,247.935
			c4.523,0,7.572-1.324,9.143-3.973c1.574-2.649,2.361-6.659,2.361-12.033v-38.111c0-5.294-0.787-9.214-2.361-11.759
			c-1.571-2.542-4.62-3.815-9.143-3.815c-4.576,0-7.65,1.273-9.223,3.815c-1.574,2.545-2.359,6.464-2.359,11.759v38.111
			c0,5.374,0.785,9.384,2.359,12.033C287.844,246.611,290.918,247.935,295.494,247.935z M353.592,257.492
			c-6.083,0-10.829-1.212-14.237-3.639c-3.396-2.438-5.735-5.84-7.02-10.205c-1.285-4.367-1.928-9.846-1.928-16.439v-57.656h11.603
			v58.186c0,6.593,0.766,11.609,2.3,15.043s4.627,5.152,9.282,5.152c4.653,0,7.749-1.718,9.281-5.152
			c1.547-3.435,2.32-8.45,2.32-15.043v-58.186h11.504v57.656c0,6.593-0.649,12.073-1.947,16.439
			c-1.285,4.365-3.611,7.767-6.979,10.205C364.412,256.279,359.688,257.492,353.592,257.492z M410.189,257.609
			c-7.876,0-13.572-2.484-17.085-7.453c-3.501-4.982-5.253-12.382-5.253-22.2v-29.103c0-6.726,0.697-12.251,2.086-16.577
			c1.401-4.34,3.8-7.67,7.198-9.991c3.408-2.333,8.081-3.5,14.018-3.5c8.026,0,13.808,2.045,17.346,6.136
			c3.539,4.077,5.311,10.48,5.311,19.211v3.225h-11.368v-2.694c0-4.143-0.255-7.34-0.766-9.598c-0.498-2.254-1.553-3.95-3.167-5.091
			c-1.611-1.153-3.992-1.731-7.14-1.731c-3.366,0-5.876,0.774-7.528,2.321c-1.639,1.534-2.696,3.592-3.166,6.174
			c-0.459,2.571-0.688,6.005-0.688,10.306v32.208c0,6.66,0.806,11.438,2.418,14.335c1.613,2.897,4.705,4.346,9.282,4.346
			c4.522,0,7.623-1.574,9.301-4.72c1.679-3.146,2.518-8.193,2.518-15.142v-6.016h-11.054v-8.595h22.006v43.066h-7.629l-1.179-9.989
			C422.934,253.919,417.782,257.609,410.189,257.609z M446.917,169.553h12.133v37.578h22.338v-37.578h12.131v86.975h-12.131v-40.706
			H459.05v40.706h-12.133V169.553z M516.716,178.559h-14.708v-9.006h41.117v9.006H528.85v77.969h-12.134V178.559z"/>
	</g>
</g>
</svg>
